<svg width="24" height="24" xmlns="http://www.w3.org/2000/svg">

 <g>
  <title>background</title>
  <rect fill="none" id="canvas_background" height="402" width="582" y="-1" x="-1"/>
 </g>
 <g>
  <title>Layer 1</title>
  <path fill="#ffffff" id="svg_1" d="m15.601918,3.926973a3.936,3.936 0 1 1 5.567,5.567l-3.627,3.627a3.936,3.936 0 0 1 -5.88,-0.353a0.75,0.75 0 0 0 -1.18,0.928a5.436,5.436 0 0 0 8.12,0.486l3.628,-3.628a5.436,5.436 0 1 0 -7.688,-7.688l-3,3a0.75,0.75 0 0 0 1.06,1.061l3,-3z"/>
  <path fill="#ffffff" id="svg_2" d="m7.28,11.153a3.936,3.936 0 0 1 5.88,0.353a0.75,0.75 0 0 0 1.18,-0.928a5.436,5.436 0 0 0 -8.12,-0.486l-3.628,3.628a5.436,5.436 0 1 0 7.688,7.688l3,-3a0.75,0.75 0 1 0 -1.06,-1.06l-3,3a3.936,3.936 0 0 1 -5.567,-5.568l3.627,-3.627z"/>
 </g>
</svg>